<?xml version="1.0" encoding="UTF-8"?>
<svg xmlns="http://www.w3.org/2000/svg" xmlns:xlink="http://www.w3.org/1999/xlink" width="512" height="512" viewBox="0 0 60 52" version="1.1"><!-- Generator: Sketch 51.3 (57544) - http://www.bohemiancoding.com/sketch --><title>011 - Draw on Grid</title><desc>Created with Sketch.</desc><defs/><g id="Page-1" stroke="none" stroke-width="1" fill="none" fill-rule="evenodd"><g id="011---Draw-on-Grid" transform="translate(0.000000, -1.000000)" fill="#000000" fill-rule="nonzero"><path d="M3,49 L57,49 C58.1184513,48.9966283 59.1421605,48.371356 59.6558391,47.3778376 C60.1695178,46.3843192 60.0878631,45.1875408 59.444,44.273 L45.913,26.581 C45.6952466,26.2976884 45.3428893,26.1520677 44.9886575,26.1989918 C44.6344258,26.245916 44.3321359,26.4782561 44.1956575,26.8084918 C44.0591791,27.1387276 44.1092466,27.5166884 44.327,27.8 L44.481,28 L43.31,28 C42.7577153,28 42.31,28.4477153 42.31,29 C42.31,29.5522847 42.7577153,30 43.31,30 L46.01,30 L50.6,36 L38.217,36 L37.384,32.443 C37.311225,32.0864732 37.0505303,31.7976168 36.7033103,31.6887783 C36.3560903,31.5799399 35.9771546,31.6682998 35.7138861,31.9194915 C35.4506177,32.1706832 35.3445742,32.5450554 35.437,32.897 L36.163,35.997 L24.011,35.997 L25.5,30 L26.64,30 C27.1922847,30 27.64,29.5522847 27.64,29 C27.64,28.4477153 27.1922847,28 26.64,28 L26,28 L26.994,24 L28.94,24 C29.4922847,24 29.94,23.5522847 29.94,23 C29.94,22.4477153 29.4922847,22 28.94,22 L20.02,22 C19.0753557,21.9984197 18.1855223,22.4433364 17.62,23.2 L0.568,44.246 C-0.0901663915,45.1592602 -0.181675468,46.364117 0.331012407,47.3663037 C0.843700283,48.3684905 1.87428838,48.9993169 3,49 Z M52.13,38 L57.824,45.443 C58.0290564,45.7487317 58.0495543,46.1424038 57.8773586,46.4677784 C57.7051629,46.7931531 57.3681227,46.9976078 57,47 L40.793,47 L38.685,38 L52.13,38 Z M36.63,38 L38.737,47 L21.278,47 L23.514,38 L36.63,38 Z M21.95,36 L9.823,36 L14.685,30 L23.441,30 L21.95,36 Z M19.208,24.42 C19.3961893,24.1585064 19.6978386,24.0024809 20.02,24 L24.931,24 L23.937,28 L16.306,28 L19.208,24.42 Z M2.157,45.46 L8.2,38 L21.453,38 L19.218,47 L3,47 C2.6341151,47.0004887 2.29717478,46.8011153 2.1214882,46.4801694 C1.94580162,46.1592236 1.95942165,45.7679526 2.157,45.46 Z" id="Shape"/><path d="M51.464,2.464 L47.38,6.549 L47.368,6.558 L47.293,6.633 L47.287,6.641 L33.08,20.849 L33.074,20.857 C33.0329891,20.9072738 32.9971418,20.9615472 32.967,21.019 C32.925238,21.0719966 32.8887326,21.1289316 32.858,21.189 L32.858,21.197 L29.318,30.39 C29.1764173,30.7587365 29.2651457,31.1762628 29.5444415,31.4555585 C29.8237372,31.7348543 30.2412635,31.8235827 30.61,31.682 L39.8,28.147 L39.808,28.147 C39.8628559,28.1183473 39.9150607,28.0848827 39.964,28.047 C40.0267063,28.0135318 40.0859885,27.9740103 40.141,27.929 L40.148,27.929 L54.358,13.713 L54.367,13.707 L54.442,13.632 L54.451,13.62 L58.536,9.536 C60.4888789,7.58312112 60.4888789,4.41687888 58.536,2.464 C56.5831211,0.511121125 53.4168789,0.511121125 51.464,2.464 Z M48.764,7.99 C49.6780427,7.15335048 51.0025076,6.9413889 52.132,7.451 L49.29,10.293 C49.0300434,10.5440745 48.9257874,10.9158779 49.0173028,11.2655073 C49.1088183,11.6151368 49.3818632,11.8881817 49.7314927,11.9796972 C50.0811221,12.0712126 50.4529255,11.9669566 50.704,11.707 L53.555,8.856 C53.7498812,9.25613757 53.8524042,9.69493595 53.855,10.14 C53.8525399,10.9144265 53.5533533,11.6584565 53.019,12.219 L39.444,25.8 L38.034,24.391 L47.427,15 C47.8059722,14.6076211 47.8005524,13.9839152 47.4148186,13.5981814 C47.0290848,13.2124476 46.4053789,13.2070278 46.013,13.586 L36.62,22.976 L35.2,21.556 L48.764,7.99 Z M35.508,27.656 C34.971716,26.7707234 34.2292766,26.028284 33.344,25.492 L34.168,23.351 L35.912,25.1 L37.646,26.834 L35.508,27.656 Z M32.608,27.407 C32.9867317,27.6807382 33.3192618,28.0132683 33.593,28.392 L31.993,29.008 L32.608,27.407 Z M57.122,8.122 L55.792,9.451 C55.6479369,8.37794251 55.1594612,7.38063802 54.4,6.609 L54.4,6.603 C53.6278222,5.8440778 52.6301661,5.35630365 51.557,5.213 L52.886,3.883 C54.0579483,2.71105186 55.9580517,2.71105191 57.1299999,3.8830001 C58.3019481,5.0549483 58.3019481,6.95505174 57.13,8.127 L57.122,8.122 Z" id="Shape"/><path d="M4,51 C3.44771525,51 3,51.4477153 3,52 C3,52.5522847 3.44771525,53 4,53 L22,53 C22.5522847,53 23,52.5522847 23,52 C23,51.4477153 22.5522847,51 22,51 L4,51 Z" id="Shape"/><path d="M27,51 C26.4477153,51 26,51.4477153 26,52 C26,52.5522847 26.4477153,53 27,53 L30,53 C30.5522847,53 31,52.5522847 31,52 C31,51.4477153 30.5522847,51 30,51 L27,51 Z" id="Shape"/></g></g></svg>
