<?xml version="1.0" encoding="UTF-8"?>
<svg xmlns="http://www.w3.org/2000/svg" xmlns:xlink="http://www.w3.org/1999/xlink" width="512" height="512" viewBox="0 0 56 50" version="1.1"><!-- Generator: Sketch 51.3 (57544) - http://www.bohemiancoding.com/sketch --><title>011 - Draw on Grid</title><desc>Created with Sketch.</desc><defs/><g id="Page-1" stroke="none" stroke-width="1" fill="none" fill-rule="evenodd"><g id="011---Draw-on-Grid" fill="#000000" fill-rule="nonzero"><path d="M2,48 C1.44771525,48 1,48.4477153 1,49 C1,49.5522847 1.44771525,50 2,50 L20,50 C20.5522847,50 21,49.5522847 21,49 C21,48.4477153 20.5522847,48 20,48 L2,48 Z" id="Shape"/><path d="M25,48 C24.4477153,48 24,48.4477153 24,49 C24,49.5522847 24.4477153,50 25,50 L28,50 C28.5522847,50 29,49.5522847 29,49 C29,48.4477153 28.5522847,48 28,48 L25,48 Z" id="Shape"/><polygon id="Shape" points="19.95 33 21.441 27 12.69 27 7.83 33"/><path d="M30.61,24.41 L30.38,25 L29.99,26.01 L31.59,25.39 C31.4944008,25.2513 31.3873605,25.1208446 31.27,25 C31.0743162,24.7777166 30.8527417,24.5796424 30.61,24.41 Z" id="Shape"/><polygon id="Shape" points="29.77 21 29 21 26.94 21 24.992 21 23.999 25 28.24 25"/><path d="M1,44 L17.218,44 L19.453,35 L6.21,35 L0.16,42.46 C-0.0372883143,42.7675001 -0.0511790141,43.1581163 0.123768555,43.4788535 C0.298716125,43.7995907 0.634652712,43.999392 1,44 Z" id="Shape"/><polygon id="Shape" points="34.43 35 21.515 35 19.279 44 36.66 44"/><path d="M50.88,0.88 L49.55,2.21 C50.6228267,2.35153127 51.6200629,2.83961517 52.39,3.6 L52.4,3.6 L52.4,3.61 C53.1583433,4.38138408 53.6460736,5.37789778 53.79,6.45 L55.12,5.12 C56.2214354,3.93796098 56.1889355,2.09596111 55.0464872,0.953512804 C53.9040389,-0.188935504 52.062039,-0.221435442 50.88,0.88 Z" id="Shape"/><path d="M22.011,33 L33.93,33 L32.49,27.19 L28.61,28.68 C28.4958982,28.7272048 28.3734767,28.751009 28.25,28.75 C27.9193586,28.7529329 27.6089918,28.5909303 27.4223485,28.3179896 C27.2357052,28.0450489 27.1973249,27.6970556 27.32,27.39 L27.47,27 L23.5,27 L22.011,33 Z" id="Shape"/><path d="M38.15,24.92 L38.14,24.92 C38.1076597,24.952158 38.0705578,24.9791412 38.03,25 L41.63,25 L40.04,23.03 L38.15,24.92 Z" id="Shape"/><path d="M54.94,44 C55.3149331,44.0028591 55.6593754,43.7938716 55.83,43.46 C56.0000324,43.1222303 55.9692423,42.7181107 55.75,42.41 L49.74,35 L36.49,35 L38.72,44 L54.94,44 Z" id="Shape"/><path d="M32.82,21 L32.17,20.35 L31.92,21 L31.34,22.49 C32.2277507,23.027746 32.972254,23.7722493 33.51,24.66 L33.88,24.52 L35.65,23.83 L33.91,22.1 L33.07,21.26 L32.82,21 Z" id="Shape"/><polygon id="Shape" points="35.99 33 48.12 33 43.25 27 34.5 27"/><path d="M17.21,21.42 L14.31,25 L21.937,25 L22.931,21 L18.02,21 C17.6985057,21.0029551 17.3976655,21.1589463 17.21,21.42 Z" id="Shape"/><path d="M33.64,19 L34.62,19.98 L35.6,19 L44.01,10.58 C44.4021222,10.1878779 45.0378778,10.1878779 45.43,10.58 C45.8221221,10.9721222 45.8221221,11.6078778 45.43,12 L38.38,19.04 L36.42,21 L36.03,21.39 L37.44,22.8 L38.77,21.47 L40.19,20.05 L51.02,9.22 C51.5584336,8.66137396 51.8595027,7.91586956 51.86,7.14 C51.8568744,6.69627987 51.7543632,6.2588988 51.56,5.86 L48.71,8.71 C48.3156639,9.09674033 47.6843361,9.09674033 47.29,8.71 C46.9000221,8.31699206 46.9000221,7.68300794 47.29,7.29 L50.14,4.45 C49.0095181,3.94166881 47.6850533,4.15389759 46.77,4.99 L33.2,18.56 L33.64,19 Z" id="Shape"/></g></g></svg>
