<?xml version="1.0" encoding="UTF-8"?>
<svg xmlns="http://www.w3.org/2000/svg" xmlns:xlink="http://www.w3.org/1999/xlink" width="512" height="512" viewBox="0 0 60 52" version="1.1"><!-- Generator: Sketch 51.3 (57544) - http://www.bohemiancoding.com/sketch --><title>011 - Draw on Grid</title><desc>Created with Sketch.</desc><defs/><g id="Page-1" stroke="none" stroke-width="1" fill="none" fill-rule="evenodd"><g id="011---Draw-on-Grid" transform="translate(0.000000, -1.000000)" fill-rule="nonzero"><path d="M57,48 L3,48 C2.24953114,47.9992248 1.56265558,47.578387 1.22114586,46.9101242 C0.879636142,46.2418614 0.940975082,45.4386553 1.38,44.83 L7.73,37 L14.21,29 L18.4,23.83 C18.7764982,23.3105384 19.3784498,23.0021311 20.02,23 L39.98,23 C40.6215502,23.0021311 41.2235018,23.3105384 41.6,23.83 L45.79,29 L52.27,37 L58.62,44.83 C59.0590249,45.4386553 59.1203639,46.2418614 58.7788541,46.9101242 C58.4373444,47.578387 57.7504689,47.9992248 57,48 Z" id="Shape" fill="#CAD9FC"/><path d="M54,48 L3,48 C2.24953114,47.9992248 1.56265558,47.578387 1.22114586,46.9101242 C0.879636142,46.2418614 0.940975082,45.4386553 1.38,44.83 L7.73,37 L14.21,29 L18.4,23.83 C18.7764982,23.3105384 19.3784498,23.0021311 20.02,23 L36.98,23 C37.6215502,23.0021311 38.2235018,23.3105384 38.6,23.83 L42.79,29 L49.27,37 L55.62,44.83 C56.0590249,45.4386553 56.1203639,46.2418614 55.7788541,46.9101242 C55.4373444,47.578387 54.7504689,47.9992248 54,48 Z" id="Shape" fill="#E8EDFC"/><polygon id="Shape" fill="#E8EDFC" points="24.72 29 22.73 37 7.73 37 14.21 29"/><polygon id="Shape" fill="#CAD9FC" points="52.27 37 37.27 37 35.28 29 45.79 29"/><polygon id="Shape" fill="#E8EDFC" points="49.99 37 37.27 37 35.28 29 43.51 29"/><polygon id="Shape" fill="#E8EDFC" points="35.28 29 24.72 29 26.21 23 33.79 23"/><polygon id="Shape" fill="#E8EDFC" points="40 48 20 48 22.73 37 37.27 37"/><path d="M39.44,27.21 L35.03,28.91 C34.772,28.269 33.211,28.816 32.741,28.329 C32.229,27.799 32.789,26.252 32.09,25.97 L33.79,21.56 L40,21 L39.44,27.21 Z" id="Shape" fill="#E8EDFC"/><path d="M35.03,28.91 L31.3,30.346 C31.1152898,30.4176636 30.9056877,30.3735034 30.7655921,30.2334079 C30.6254966,30.0933123 30.5813364,29.8837102 30.653,29.699 L32.09,25.97 C33.4292112,26.509142 34.490858,27.5707888 35.03,28.91 Z" id="Shape" fill="#7FACFA"/><path d="M56,8 C55.6073599,9.78463431 54.8329504,11.4630902 53.73,12.92 C53.73,12.93 53.73,12.93 53.72,12.94 L53.66,13 L39.44,27.21 L36.62,24.39 L33.79,21.56 L48,7.34 L48.06,7.28 C48.07,7.27 48.07,7.27 48.08,7.27 C48.81,6.57 50.92,4 52,4 C53.1,4 55.27,4.28 56,5 C56.73,5.72 56,6.9 56,8 Z" id="Shape" fill="#CAD9FC"/><path d="M53.69,7.31 L50,11 L46.72,14.29 L36.62,24.39 L33.79,21.56 L48,7.34 L48.06,7.28 C48.07,7.27 48.07,7.27 48.08,7.27 C49.6474832,5.74992631 52.1443517,5.76772929 53.69,7.31 Z" id="Shape" fill="#E8EDFC"/><path d="M57.83,8.83 L53.73,12.92 C55.1310073,11.4832345 55.2424864,9.22792674 53.99,7.66 L56.83,4.83 C57.2935226,4.36634318 57.6368004,3.79650204 57.83,3.17 C59.3897839,4.73428251 59.3897839,7.26571749 57.83,8.83 Z" id="Shape" fill="#7FACFA"/><path d="M57.83,3.17 C57.6368004,3.79650204 57.2935226,4.36634318 56.83,4.83 L53.99,7.66 C53.8983607,7.53641917 53.7981115,7.41946179 53.69,7.31 C52.1443517,5.76772929 49.6474832,5.74992631 48.08,7.27 L52.17,3.17 C52.23,3.11 52.29,3.06 52.35,3.01 C53.9317597,1.60633048 56.3328311,1.67643476 57.83,3.17 Z" id="Shape" fill="#A4C2F7"/><path d="M53.99,7.66 L52.73,8.92 C53.1730048,8.46694656 53.5020388,7.91512913 53.69,7.31 C53.7981115,7.41946179 53.8983607,7.53641917 53.99,7.66 Z" id="Shape" fill="#CAD9FC"/><path d="M2.625,48.042 L5.625,48.042 C4.87453114,48.0412248 4.18765558,47.620387 3.84614586,46.9521242 C3.50463614,46.2838614 3.56597508,45.4806553 4.005,44.872 L10.355,37.042 L16.835,29.042 L21.025,23.872 C21.4014982,23.3525384 22.0034498,23.0441311 22.645,23.042 L19.645,23.042 C19.0034498,23.0441311 18.4014982,23.3525384 18.025,23.872 L13.835,29.042 L7.355,37.042 L1,44.872 C0.560448293,45.4813847 0.499528844,46.2857143 0.842283993,46.9543505 C1.18503914,47.6229867 1.87363175,48.0431026 2.625,48.042 Z" id="Shape" fill="#FFFFFF"/><path d="M57,49 L3,49 C1.87428838,48.9993169 0.843700283,48.3684905 0.331012407,47.3663037 C-0.181675468,46.364117 -0.0901663915,45.1592602 0.568,44.246 L17.623,23.2 C18.1885223,22.4433364 19.0783557,21.9984197 20.023,22 L28.943,22 C29.4952847,22 29.943,22.4477153 29.943,23 C29.943,23.5522847 29.4952847,24 28.943,24 L20.02,24 C19.6978386,24.0024809 19.3961893,24.1585064 19.208,24.42 L2.157,45.46 C1.95942165,45.7679526 1.94580162,46.1592236 2.1214882,46.4801694 C2.29717478,46.8011153 2.6341151,47.0004887 3,47 L57,47 C57.3681227,46.9976078 57.7051629,46.7931531 57.8773586,46.4677784 C58.0495543,46.1424038 58.0290564,45.7487317 57.824,45.443 L44.327,27.8 C44.102333,27.5171972 44.0476239,27.1352214 44.1838773,26.8007252 C44.3201307,26.4662291 44.62617,26.2312002 44.9844969,26.1858737 C45.3428238,26.1405471 45.6977469,26.2919676 45.913,26.582 L59.444,44.273 C60.0878631,45.1875408 60.1695178,46.3843192 59.6558391,47.3778376 C59.1421605,48.371356 58.1184513,48.9966283 57,49 Z" id="Shape" fill="#428DFF"/><path d="M40,49 L20,49 C19.6922592,49.0001461 19.40159,48.8585909 19.2119531,48.6162228 C19.0223162,48.3738547 18.9548344,48.0576702 19.029,47.759 L25.239,22.759 C25.3497719,22.3129128 25.7503652,21.9997817 26.21,22 L28.94,22 C29.4922847,22 29.94,22.4477153 29.94,23 C29.94,23.5522847 29.4922847,24 28.94,24 L26.992,24 L21.278,47 L38.738,47 L35.438,32.9 C35.3455742,32.5480554 35.4516177,32.1736832 35.7148861,31.9224915 C35.9781546,31.6712998 36.3570903,31.5829399 36.7043103,31.6917783 C37.0515303,31.8006168 37.312225,32.0894732 37.385,32.446 L40.975,47.774 C41.0439536,48.07121 40.9734517,48.3836389 40.7835445,48.6224351 C40.5936373,48.8612312 40.3051037,49.0002663 40,49 Z" id="Shape" fill="#428DFF"/><path d="M46.51,30 L43.31,30 C42.7577153,30 42.31,29.5522847 42.31,29 C42.31,28.4477153 42.7577153,28 43.31,28 L46.51,28 C47.0622847,28 47.51,28.4477153 47.51,29 C47.51,29.5522847 47.0622847,30 46.51,30 Z" id="Shape" fill="#428DFF"/><path d="M26.64,30 L14.21,30 C13.6577153,30 13.21,29.5522847 13.21,29 C13.21,28.4477153 13.6577153,28 14.21,28 L26.64,28 C27.1922847,28 27.64,28.4477153 27.64,29 C27.64,29.5522847 27.1922847,30 26.64,30 Z" id="Shape" fill="#428DFF"/><path d="M52.63,38 L7.73,38 C7.17771525,38 6.73,37.5522847 6.73,37 C6.73,36.4477153 7.17771525,36 7.73,36 L52.63,36 C53.1822847,36 53.63,36.4477153 53.63,37 C53.63,37.5522847 53.1822847,38 52.63,38 Z" id="Shape" fill="#428DFF"/><polygon id="Shape" fill="#FFFFFF" points="33.08 20.849 42.272 11.657 51.464 2.464 52.879 3.879 43.686 13.071 34.494 22.263"/><path d="M37.322,18.021 C36.9315001,17.6306181 36.2984999,17.6306181 35.908,18.021 L33.08,20.849 L34.494,22.263 L37.322,19.435 C37.7123819,19.0445001 37.7123819,18.4114999 37.322,18.021 Z" id="Shape" fill="#428DFF"/><path d="M52.879,3.879 L51.464,2.464 L41.564,12.364 C41.1850278,12.7563789 41.1904476,13.3800848 41.5761814,13.7658186 C41.9619152,14.1515524 42.5856211,14.1569722 42.978,13.778 L52.879,3.879 Z" id="Shape" fill="#428DFF"/><path d="M38.737,15.192 C38.551243,15.3816892 38.4440778,15.6345993 38.437,15.9 L38.458,16.09 C38.4705083,16.1564809 38.4916892,16.2210324 38.521,16.282 C38.5411855,16.3420751 38.5698049,16.3989771 38.606,16.451 C38.6451827,16.5057636 38.6879426,16.5578772 38.734,16.607 C38.9233263,16.7926929 39.1759048,16.8998691 39.441,16.907 C39.9858115,16.8893616 40.4233616,16.4518115 40.441,15.907 C40.4369987,15.7754472 40.4081588,15.6458372 40.356,15.525 C40.3069154,15.4037319 40.2349384,15.2930502 40.144,15.199 C39.9578023,15.0090411 39.7029961,14.9020014 39.437,14.9020014 C39.1710039,14.9020014 38.9161977,15.0090411 38.73,15.199 L38.737,15.192 Z" id="Shape" fill="#428DFF"/><path d="M39.444,28.213 C39.1786514,28.2137185 38.9240531,28.1082061 38.737,27.92 L33.08,22.263 C32.7010278,21.8706211 32.7064476,21.2469152 33.0921814,20.8611814 C33.4779152,20.4754476 34.1016211,20.4700278 34.494,20.849 L39.444,25.799 L57.122,8.122 C58.2939481,6.95005174 58.2939481,5.0499483 57.1219999,3.8780001 C55.9500517,2.70605191 54.0499483,2.70605186 52.878,3.878 C52.4856211,4.25697221 51.8619152,4.25155237 51.4761814,3.86581858 C51.0904476,3.48008478 51.0850278,2.85637889 51.464,2.464 C53.4168789,0.511121224 56.5831211,0.511121271 58.5359999,2.46400011 C60.4888787,4.41687894 60.4888788,7.58312111 58.536,9.536 L40.151,27.92 C39.9639469,28.1082061 39.7093486,28.2137185 39.444,28.213 Z" id="Shape" fill="#428DFF"/><path d="M30.251,31.749 C29.9215907,31.7488888 29.6133658,31.5865576 29.4269241,31.3149881 C29.2404823,31.0434186 29.199742,30.6974501 29.318,30.39 L32.853,21.2 C32.9812583,20.8664926 33.277698,20.626744 33.6306531,20.5710653 C33.9836082,20.5153866 34.3394564,20.6522366 34.5641531,20.9300653 C34.7888499,21.207894 34.8482583,21.5844926 34.72,21.918 L31.992,29.011 L39.085,26.283 C39.4185074,26.1547417 39.795106,26.2141501 40.0729347,26.4388469 C40.3507634,26.6635436 40.4876134,27.0193918 40.4319347,27.3723469 C40.376256,27.725302 40.1365074,28.0217417 39.803,28.15 L30.61,31.682 C30.4955045,31.7263356 30.3737797,31.749053 30.251,31.749 Z" id="Shape" fill="#428DFF"/><path d="M35.032,29.911 C34.6250137,29.9113201 34.2584338,29.6649563 34.105,29.288 C33.6589531,28.2038966 32.797034,27.3437784 31.712,26.9 C31.2003082,26.6915125 30.9545125,26.1076918 31.163,25.596 C31.3714875,25.0843082 31.9553082,24.8385125 32.467,25.047 C34.0504133,25.6974128 35.3075872,26.9545867 35.958,28.538 C36.1641015,29.0485777 35.9186869,29.6297052 35.409,29.838 C35.2893022,29.8867056 35.1612267,29.9115054 35.032,29.911 Z" id="Shape" fill="#428DFF"/><path d="M22,53 L4,53 C3.44771525,53 3,52.5522847 3,52 C3,51.4477153 3.44771525,51 4,51 L22,51 C22.5522847,51 23,51.4477153 23,52 C23,52.5522847 22.5522847,53 22,53 Z" id="Shape" fill="#428DFF"/><path d="M30,53 L27,53 C26.4477153,53 26,52.5522847 26,52 C26,51.4477153 26.4477153,51 27,51 L30,51 C30.5522847,51 31,51.4477153 31,52 C31,52.5522847 30.5522847,53 30,53 Z" id="Shape" fill="#428DFF"/><path d="M36.62,25.39 C36.2156041,25.3899137 35.8510659,25.1462725 35.696322,24.7726546 C35.5415781,24.3990366 35.6270921,23.9689943 35.913,23.683 L46.013,13.583 C46.2661227,13.3304132 46.6347711,13.2320528 46.980079,13.32497 C47.3253869,13.4178873 47.5948938,13.687966 47.687079,14.03347 C47.7792642,14.3789741 47.6801227,14.7474132 47.427,15 L37.327,25.1 C37.1390172,25.2864497 36.884765,25.3907399 36.62,25.39 Z" id="Shape" fill="#428DFF"/><path d="M53.66,14 C53.2556041,13.9999137 52.8910659,13.7562725 52.736322,13.3826546 C52.5815781,13.0090366 52.6670921,12.5789943 52.953,12.293 L53.013,12.233 C54.1557043,11.0524178 54.1401243,9.17347083 52.978,8.012 C51.792676,6.89478487 49.9436496,6.88953444 48.752,8 C48.3534174,8.38946371 47.7178942,8.39300177 47.315,8.008 C47.1271193,7.82983438 47.0189002,7.58351635 47.0147609,7.32462446 C47.0106217,7.06573258 47.110911,6.81608084 47.293,6.632 L47.368,6.557 C48.6316484,5.29335161 50.473456,4.79984073 52.1996319,5.26236815 C53.9258077,5.72489556 55.2741044,7.07319234 55.7366319,8.79936815 C56.1991593,10.525544 55.7056484,12.3673516 54.442,13.631 L54.367,13.706 C54.1796711,13.8939162 53.9253384,13.9996783 53.66,14 Z" id="Shape" fill="#428DFF"/><path d="M50,12 C49.5956041,11.9999137 49.2310659,11.7562725 49.076322,11.3826546 C48.9215781,11.0090366 49.0070921,10.5789943 49.293,10.293 L52.983,6.603 C53.2355868,6.34987731 53.6040259,6.25073575 53.94953,6.34292097 C54.295034,6.4351062 54.5651127,6.70461308 54.65803,7.04992099 C54.7509473,7.39522889 54.6525868,7.76387733 54.4,8.017 L50.71,11.707 C50.5217728,11.8952861 50.2662341,12.0007408 50,12 Z" id="Shape" fill="#428DFF"/></g></g></svg>
