<?xml version="1.0" encoding="UTF-8"?>
<svg xmlns="http://www.w3.org/2000/svg" xmlns:xlink="http://www.w3.org/1999/xlink" width="512" height="512" viewBox="0 0 58 51" version="1.1"><!-- Generator: Sketch 51.3 (57544) - http://www.bohemiancoding.com/sketch --><title>011 - Draw on Grid</title><desc>Created with Sketch.</desc><defs/><g id="Page-1" stroke="none" stroke-width="1" fill="none" fill-rule="evenodd"><g id="011---Draw-on-Grid" transform="translate(0.000000, -1.000000)" fill-rule="nonzero"><path d="M56,47 L2,47 C1.24953114,46.9992248 0.562655575,46.578387 0.221145859,45.9101242 C-0.120363858,45.2418614 -0.0590249176,44.4386553 0.38,43.83 L6.73,36 L13.21,28 L17.4,22.83 C17.7764982,22.3105384 18.3784498,22.0021311 19.02,22 L38.98,22 C39.6215502,22.0021311 40.2235018,22.3105384 40.6,22.83 L44.79,28 L51.27,36 L57.62,43.83 C58.0590249,44.4386553 58.1203639,45.2418614 57.7788541,45.9101242 C57.4373444,46.578387 56.7504689,46.9992248 56,47 Z" id="Shape" fill="#67B9CC"/><polygon id="Shape" fill="#2FA8CC" points="23.72 28 21.73 36 6.73 36 13.21 28"/><polygon id="Shape" fill="#2FA8CC" points="51.27 36 36.27 36 34.28 28 44.79 28"/><polygon id="Shape" fill="#2FA8CC" points="34.28 28 23.72 28 25.21 22 32.79 22"/><polygon id="Shape" fill="#2FA8CC" points="39 47 19 47 21.73 36 36.27 36"/><path d="M38.44,26.21 L34.03,27.91 C33.772,27.269 32.211,27.816 31.741,27.329 C31.229,26.799 31.789,25.252 31.09,24.97 L32.79,20.56 L39,20 L38.44,26.21 Z" id="Shape" fill="#F9EAB0"/><path d="M34.03,27.91 L30.3,29.346 C30.1152898,29.4176636 29.9056877,29.3735034 29.7655921,29.2334079 C29.6254966,29.0933123 29.5813364,28.8837102 29.653,28.699 L31.09,24.97 C32.4292112,25.509142 33.490858,26.5707888 34.03,27.91 Z" id="Shape" fill="#2C2F38"/><path d="M21,52 L3,52 C2.44771525,52 2,51.5522847 2,51 C2,50.4477153 2.44771525,50 3,50 L21,50 C21.5522847,50 22,50.4477153 22,51 C22,51.5522847 21.5522847,52 21,52 Z" id="Shape" fill="#9FC9D3"/><path d="M29,52 L26,52 C25.4477153,52 25,51.5522847 25,51 C25,50.4477153 25.4477153,50 26,50 L29,50 C29.5522847,50 30,50.4477153 30,51 C30,51.5522847 29.5522847,52 29,52 Z" id="Shape" fill="#9FC9D3"/><path d="M55,7 C54.6073599,8.78463431 53.8329504,10.4630902 52.73,11.92 C52.73,11.93 52.73,11.93 52.72,11.94 L52.66,12 L38.44,26.21 L35.62,23.39 L32.79,20.56 L47,6.34 L47.06,6.28 C47.07,6.27 47.07,6.27 47.08,6.27 C47.81,5.57 49.92,3 51,3 C52.1,3 54.27,3.28 55,4 C55.73,4.72 55,5.9 55,7 Z" id="Shape" fill="#F0C419"/><path d="M52.69,6.31 L49,10 L45.72,13.29 L35.62,23.39 L32.79,20.56 L47,6.34 L47.06,6.28 C47.07,6.27 47.07,6.27 47.08,6.27 C48.6474832,4.74992631 51.1443517,4.76772929 52.69,6.31 Z" id="Shape" fill="#F3D55B"/><path d="M56.83,7.83 L52.73,11.92 C54.1619504,10.3396255 54.1022227,7.91375662 52.594233,6.40576698 C51.0862434,4.89777735 48.6603745,4.83804956 47.08,6.27 L51.17,2.17 C52.1810616,1.15893835 53.654716,0.764073807 55.0358519,1.13414804 C56.4169878,1.50422227 57.4957777,2.5830122 57.865852,3.96414807 C58.2359262,5.34528395 57.8410617,6.81893839 56.83,7.83 Z" id="Shape" fill="#D75E72"/></g></g></svg>
