<?xml version="1.0" encoding="UTF-8"?>
<svg xmlns="http://www.w3.org/2000/svg" xmlns:xlink="http://www.w3.org/1999/xlink" width="512" height="512" viewBox="0 0 60 52" version="1.1"><!-- Generator: Sketch 51.3 (57544) - http://www.bohemiancoding.com/sketch --><title>011 - Draw on Grid</title><desc>Created with Sketch.</desc><defs/><g id="Page-1" stroke="none" stroke-width="1" fill="none" fill-rule="evenodd"><g id="011---Draw-on-Grid" fill-rule="nonzero"><path d="M57,47 L3,47 C2.24953114,46.9992248 1.56265558,46.578387 1.22114586,45.9101242 C0.879636142,45.2418614 0.940975082,44.4386553 1.38,43.83 L7.73,36 L14.21,28 L18.4,22.83 C18.7764982,22.3105384 19.3784498,22.0021311 20.02,22 L39.98,22 C40.6215502,22.0021311 41.2235018,22.3105384 41.6,22.83 L45.79,28 L52.27,36 L58.62,43.83 C59.0590249,44.4386553 59.1203639,45.2418614 58.7788541,45.9101242 C58.4373444,46.578387 57.7504689,46.9992248 57,47 Z" id="Shape" fill="#0377BC"/><path d="M54,47 L3,47 C2.24953114,46.9992248 1.56265558,46.578387 1.22114586,45.9101242 C0.879636142,45.2418614 0.940975082,44.4386553 1.38,43.83 L7.73,36 L14.21,28 L18.4,22.83 C18.7764982,22.3105384 19.3784498,22.0021311 20.02,22 L36.98,22 C37.6215502,22.0021311 38.2235018,22.3105384 38.6,22.83 L42.79,28 L49.27,36 L55.62,43.83 C56.0590249,44.4386553 56.1203639,45.2418614 55.7788541,45.9101242 C55.4373444,46.578387 54.7504689,46.9992248 54,47 Z" id="Shape" fill="#02A9F4"/><polygon id="Shape" fill="#3F51B5" points="24.72 28 22.73 36 7.73 36 14.21 28"/><polygon id="Shape" fill="#283593" points="52.27 36 37.27 36 35.28 28 45.79 28"/><polygon id="Shape" fill="#3F51B5" points="49.99 36 37.27 36 35.28 28 43.51 28"/><polygon id="Shape" fill="#3F51B5" points="35.28 28 24.72 28 26.21 22 33.79 22"/><polygon id="Shape" fill="#3F51B5" points="40 47 20 47 22.73 36 37.27 36"/><path d="M39.44,26.21 L35.03,27.91 C34.772,27.269 33.211,27.816 32.741,27.329 C32.229,26.799 32.789,25.252 32.09,24.97 L33.79,20.56 L40,20 L39.44,26.21 Z" id="Shape" fill="#DFC49C"/><path d="M35.03,27.91 L31.3,29.346 C31.1152898,29.4176636 30.9056877,29.3735034 30.7655921,29.2334079 C30.6254966,29.0933123 30.5813364,28.8837102 30.653,28.699 L32.09,24.97 C33.4292112,25.509142 34.490858,26.5707888 35.03,27.91 Z" id="Shape" fill="#37474F"/><path d="M56,7 C55.6073599,8.78463431 54.8329504,10.4630902 53.73,11.92 C53.73,11.93 53.73,11.93 53.72,11.94 L53.66,12 L39.44,26.21 L36.62,23.39 L33.79,20.56 L48,6.34 L48.06,6.28 C48.07,6.27 48.07,6.27 48.08,6.27 C48.81,5.57 50.92,3 52,3 C53.1,3 55.27,3.28 56,4 C56.73,4.72 56,5.9 56,7 Z" id="Shape" fill="#FEC108"/><path d="M53.69,6.31 L50,10 L46.72,13.29 L36.62,23.39 L33.79,20.56 L48,6.34 L48.06,6.28 C48.07,6.27 48.07,6.27 48.08,6.27 C49.6474832,4.74992631 52.1443517,4.76772929 53.69,6.31 Z" id="Shape" fill="#FFDC00"/><path d="M57.83,7.83 L53.73,11.92 C55.1310073,10.4832345 55.2424864,8.22792674 53.99,6.66 L56.83,3.83 C57.2935226,3.36634318 57.6368004,2.79650204 57.83,2.17 C59.3897839,3.73428251 59.3897839,6.26571749 57.83,7.83 Z" id="Shape" fill="#BB193B"/><path d="M57.83,2.17 C57.6368004,2.79650204 57.2935226,3.36634318 56.83,3.83 L53.99,6.66 C53.8983607,6.53641917 53.7981115,6.41946179 53.69,6.31 C52.1443517,4.76772929 49.6474832,4.74992631 48.08,6.27 L52.17,2.17 C52.23,2.11 52.29,2.06 52.35,2.01 C53.9317597,0.606330485 56.3328311,0.676434762 57.83,2.17 Z" id="Shape" fill="#EF314C"/><path d="M53.99,6.66 L52.73,7.92 C53.1730048,7.46694656 53.5020388,6.91512913 53.69,6.31 C53.7981115,6.41946179 53.8983607,6.53641917 53.99,6.66 Z" id="Shape" fill="#C81E1E"/><path d="M57,48 L3,48 C1.87428838,47.9993169 0.843700283,47.3684905 0.331012407,46.3663037 C-0.181675468,45.364117 -0.0901663915,44.1592602 0.568,43.246 L17.623,22.2 C18.1885223,21.4433364 19.0783557,20.9984197 20.023,21 L28.943,21 C29.4952847,21 29.943,21.4477153 29.943,22 C29.943,22.5522847 29.4952847,23 28.943,23 L20.02,23 C19.6978386,23.0024809 19.3961893,23.1585064 19.208,23.42 L2.157,44.46 C1.95942165,44.7679526 1.94580162,45.1592236 2.1214882,45.4801694 C2.29717478,45.8011153 2.6341151,46.0004887 3,46 L57,46 C57.3681227,45.9976078 57.7051629,45.7931531 57.8773586,45.4677784 C58.0495543,45.1424038 58.0290564,44.7487317 57.824,44.443 L44.327,26.8 C44.102333,26.5171972 44.0476239,26.1352214 44.1838773,25.8007252 C44.3201307,25.4662291 44.62617,25.2312002 44.9844969,25.1858737 C45.3428238,25.1405471 45.6977469,25.2919676 45.913,25.582 L59.444,43.273 C60.0878631,44.1875408 60.1695178,45.3843192 59.6558391,46.3778376 C59.1421605,47.371356 58.1184513,47.9966283 57,48 Z" id="Shape" fill="#000000"/><path d="M40,48 L20,48 C19.6922592,48.0001461 19.40159,47.8585909 19.2119531,47.6162228 C19.0223162,47.3738547 18.9548344,47.0576702 19.029,46.759 L25.239,21.759 C25.3497719,21.3129128 25.7503652,20.9997817 26.21,21 L28.94,21 C29.4922847,21 29.94,21.4477153 29.94,22 C29.94,22.5522847 29.4922847,23 28.94,23 L26.992,23 L21.278,46 L38.738,46 L35.438,31.9 C35.3455742,31.5480554 35.4516177,31.1736832 35.7148861,30.9224915 C35.9781546,30.6712998 36.3570903,30.5829399 36.7043103,30.6917783 C37.0515303,30.8006168 37.312225,31.0894732 37.385,31.446 L40.975,46.774 C41.0439536,47.07121 40.9734517,47.3836389 40.7835445,47.6224351 C40.5936373,47.8612312 40.3051037,48.0002663 40,48 Z" id="Shape" fill="#000000"/><path d="M46.51,29 L43.31,29 C42.7577153,29 42.31,28.5522847 42.31,28 C42.31,27.4477153 42.7577153,27 43.31,27 L46.51,27 C47.0622847,27 47.51,27.4477153 47.51,28 C47.51,28.5522847 47.0622847,29 46.51,29 Z" id="Shape" fill="#000000"/><path d="M26.64,29 L14.21,29 C13.6577153,29 13.21,28.5522847 13.21,28 C13.21,27.4477153 13.6577153,27 14.21,27 L26.64,27 C27.1922847,27 27.64,27.4477153 27.64,28 C27.64,28.5522847 27.1922847,29 26.64,29 Z" id="Shape" fill="#000000"/><path d="M52.63,37 L7.73,37 C7.17771525,37 6.73,36.5522847 6.73,36 C6.73,35.4477153 7.17771525,35 7.73,35 L52.63,35 C53.1822847,35 53.63,35.4477153 53.63,36 C53.63,36.5522847 53.1822847,37 52.63,37 Z" id="Shape" fill="#000000"/><path d="M39.444,27.213 C39.1786514,27.2137185 38.9240531,27.1082061 38.737,26.92 L33.08,21.263 C32.6896181,20.8725001 32.6896181,20.2394999 33.08,19.849 L51.464,1.464 C53.4185523,-0.48483477 56.5814477,-0.48483477 58.536,1.464 C60.4848348,3.41855226 60.4848348,6.58144774 58.536,8.536 L40.151,26.92 C39.9639469,27.1082061 39.7093486,27.2137185 39.444,27.213 Z M35.2,20.556 L39.444,24.8 L57.122,7.122 C58.2939481,5.95005174 58.2939481,4.0499483 57.1219999,2.8780001 C55.9500517,1.70605191 54.0499483,1.70605186 52.878,2.878 L35.2,20.556 Z" id="Shape" fill="#000000"/><path d="M30.251,30.749 C29.9215907,30.7488888 29.6133658,30.5865576 29.4269241,30.3149881 C29.2404823,30.0434186 29.199742,29.6974501 29.318,29.39 L32.853,20.2 C32.9812583,19.8664926 33.277698,19.626744 33.6306531,19.5710653 C33.9836082,19.5153866 34.3394564,19.6522366 34.5641531,19.9300653 C34.7888499,20.207894 34.8482583,20.5844926 34.72,20.918 L31.992,28.011 L39.085,25.283 C39.4185074,25.1547417 39.795106,25.2141501 40.0729347,25.4388469 C40.3507634,25.6635436 40.4876134,26.0193918 40.4319347,26.3723469 C40.376256,26.725302 40.1365074,27.0217417 39.803,27.15 L30.61,30.682 C30.4955045,30.7263356 30.3737797,30.749053 30.251,30.749 Z" id="Shape" fill="#000000"/><path d="M35.032,28.911 C34.6250137,28.9113201 34.2584338,28.6649563 34.105,28.288 C33.6589531,27.2038966 32.797034,26.3437784 31.712,25.9 C31.2003082,25.6915125 30.9545125,25.1076918 31.163,24.596 C31.3714875,24.0843082 31.9553082,23.8385125 32.467,24.047 C34.0504133,24.6974128 35.3075872,25.9545867 35.958,27.538 C36.1641015,28.0485777 35.9186869,28.6297052 35.409,28.838 C35.2893022,28.8867056 35.1612267,28.9115054 35.032,28.911 Z" id="Shape" fill="#000000"/><path d="M22,52 L4,52 C3.44771525,52 3,51.5522847 3,51 C3,50.4477153 3.44771525,50 4,50 L22,50 C22.5522847,50 23,50.4477153 23,51 C23,51.5522847 22.5522847,52 22,52 Z" id="Shape" fill="#000000"/><path d="M30,52 L27,52 C26.4477153,52 26,51.5522847 26,51 C26,50.4477153 26.4477153,50 27,50 L30,50 C30.5522847,50 31,50.4477153 31,51 C31,51.5522847 30.5522847,52 30,52 Z" id="Shape" fill="#000000"/><path d="M36.62,24.39 C36.2156041,24.3899137 35.8510659,24.1462725 35.696322,23.7726546 C35.5415781,23.3990366 35.6270921,22.9689943 35.913,22.683 L46.013,12.583 C46.2661227,12.3304132 46.6347711,12.2320528 46.980079,12.32497 C47.3253869,12.4178873 47.5948938,12.687966 47.687079,13.03347 C47.7792642,13.3789741 47.6801227,13.7474132 47.427,14 L37.327,24.1 C37.1390172,24.2864497 36.884765,24.3907399 36.62,24.39 Z" id="Shape" fill="#000000"/><path d="M53.66,13 C53.2556041,12.9999137 52.8910659,12.7562725 52.736322,12.3826546 C52.5815781,12.0090366 52.6670921,11.5789943 52.953,11.293 L53.013,11.233 C54.1557043,10.0524178 54.1401243,8.17347083 52.978,7.012 C51.792676,5.89478487 49.9436496,5.88953444 48.752,7 C48.3534174,7.38946371 47.7178942,7.39300177 47.315,7.008 C47.1271193,6.82983438 47.0189002,6.58351635 47.0147609,6.32462446 C47.0106217,6.06573258 47.110911,5.81608084 47.293,5.632 L47.368,5.557 C48.6316484,4.29335161 50.473456,3.79984073 52.1996319,4.26236815 C53.9258077,4.72489556 55.2741044,6.07319234 55.7366319,7.79936815 C56.1991593,9.52554395 55.7056484,11.3673516 54.442,12.631 L54.367,12.706 C54.1796711,12.8939162 53.9253384,12.9996783 53.66,13 Z" id="Shape" fill="#000000"/><path d="M50,11 C49.5956041,10.9999137 49.2310659,10.7562725 49.076322,10.3826546 C48.9215781,10.0090366 49.0070921,9.57899425 49.293,9.293 L52.983,5.603 C53.2355868,5.34987731 53.6040259,5.25073575 53.94953,5.34292097 C54.295034,5.4351062 54.5651127,5.70461308 54.65803,6.04992099 C54.7509473,6.39522889 54.6525868,6.76387733 54.4,7.017 L50.71,10.707 C50.5217728,10.8952861 50.2662341,11.0007408 50,11 Z" id="Shape" fill="#000000"/></g></g></svg>
