<?xml version="1.0" encoding="iso-8859-1"?>
<!-- Generator: Adobe Illustrator 18.1.1, SVG Export Plug-In . SVG Version: 6.00 Build 0)  -->
<svg version="1.1" id="Capa_1" xmlns="http://www.w3.org/2000/svg" xmlns:xlink="http://www.w3.org/1999/xlink" x="0px" y="0px"
	 viewBox="0 0 20.371 20.371" style="enable-background:new 0 0 20.371 20.371;" xml:space="preserve">
<g>
	<path style="fill:#FFA500;" d="M14.325,15.123l-1.621-3.541c-0.107-0.256-0.054-0.543,0.137-0.736
		c0.133-0.13,0.3-0.199,0.477-0.199h0.116l2.964,1.307L16.49,12.1l0.426,0.186V4.831c0-0.047,0.002-0.373-0.365-0.877l-1.205-2.063
		c-0.157-0.196-0.393-0.161-0.393-0.161H0.541C0.242,1.73,0,1.972,0,2.271v15.83c0,0.3,0.242,0.542,0.541,0.542h15.831
		c0.299,0,0.541-0.242,0.541-0.542v-0.747l-2.408-2.409L14.325,15.123z M2.84,2.833h10.868v7.054H2.84V2.833z M8.878,16.325
		c-1.447,0-2.62-1.174-2.62-2.621c0-1.446,1.173-2.619,2.62-2.619s2.621,1.173,2.621,2.619
		C11.499,15.151,10.327,16.325,8.878,16.325z M3.755,3.62v0.52v4.644v0.354h0.582h8.326V3.62H4.336H3.755z M7.119,8.784H4.336V4.139
		h2.783V8.784z M8.896,11.791c-1.056,0-1.912,0.854-1.912,1.91S7.84,15.61,8.896,15.61c1.054,0,1.909-0.854,1.909-1.909
		S9.95,11.791,8.896,11.791z M8.896,14.563c-0.477,0-0.862-0.385-0.862-0.861c0-0.475,0.386-0.86,0.862-0.86s0.86,0.387,0.86,0.86
		C9.756,14.178,9.372,14.563,8.896,14.563z M14.836,14.076l3.186,3.186l-0.227,0.228l-3.186-3.186L14.836,14.076z M18.315,16.969
		l-3.184-3.185l0.575-0.575l3.185,3.185L18.315,16.969z M19.182,16.102l-3.185-3.185l0.286-0.286l3.184,3.186L19.182,16.102z
		 M14.39,14.082l-0.71-1.625l0.756-0.756l1.627,0.709L14.39,14.082z M14.193,11.58c0.007,0.041-0.006,0.082-0.034,0.109l-0.488,0.49
		c-0.028,0.027-0.069,0.04-0.109,0.033c-0.041-0.008-0.074-0.034-0.091-0.072l-0.38-0.867c-0.021-0.047-0.01-0.102,0.025-0.137
		c0.035-0.036,0.092-0.047,0.137-0.026l0.869,0.38C14.159,11.506,14.185,11.539,14.193,11.58z M20.334,16.859l-1.496,1.497
		c-0.049,0.049-0.127,0.049-0.176,0l-0.597-0.597c-0.049-0.048-0.049-0.126,0-0.175l1.498-1.496c0.047-0.049,0.126-0.049,0.174,0
		l0.597,0.597C20.383,16.733,20.383,16.811,20.334,16.859z"/>
</g>
</svg>
