<svg height="423pt" viewBox="-34 0 423 423.25333" width="423pt" xmlns="http://www.w3.org/2000/svg"><path style="fill:#FFA500" d="m6.953125 422.21875c-.894531 0-1.792969-.171875-2.644531-.53125-2.535156-1.066406-4.183594-3.546875-4.183594-6.296875v-408.5625c0-3.773437 3.058594-6.828125 6.828125-6.828125h95.574219c3.769531 0 6.824218 3.054688 6.824218 6.828125v310.316406c.226563.355469.429688.734375.589844 1.128907 1.050782 2.574218.4375 5.519531-1.546875 7.460937l-96.664062 94.539063c-1.300781 1.273437-3.027344 1.945312-4.777344 1.945312zm6.828125-408.566406v385.511718l81.917969-80.113281v-305.398437zm0 0"/><path style="fill:#FFA500" d="m348.285156 423.253906h-341.332031c-3.769531 0-6.828125-3.054687-6.828125-6.828125v-1.035156c0-1.839844.742188-3.59375 2.054688-4.878906l96.667968-94.539063c1.277344-1.246094 2.988282-1.945312 4.769532-1.945312h244.667968c3.769532 0 6.828125 3.054687 6.828125 6.824218v95.574219c0 3.773438-3.058593 6.828125-6.828125 6.828125zm-341.332031-7.863281h.070313zm15.6875-5.789063h318.820313v-81.921874h-235.058594zm0 0"/><path style="fill:#FFA500" d="m307.328125 423.253906c-3.769531 0-6.828125-3.054687-6.828125-6.828125v-34.132812c0-3.769531 3.058594-6.828125 6.828125-6.828125 3.765625 0 6.824219 3.058594 6.824219 6.828125v34.132812c0 3.773438-3.058594 6.828125-6.824219 6.828125zm0 0"/><path style="fill:#FFA500" d="m259.539062 423.253906c-3.765624 0-6.824218-3.054687-6.824218-6.828125v-34.132812c0-3.769531 3.058594-6.828125 6.824218-6.828125 3.769532 0 6.828126 3.058594 6.828126 6.828125v34.132812c0 3.773438-3.058594 6.828125-6.828126 6.828125zm0 0"/><path style="fill:#FFA500" d="m211.753906 423.253906c-3.769531 0-6.828125-3.054687-6.828125-6.828125v-34.132812c0-3.769531 3.058594-6.828125 6.828125-6.828125 3.769532 0 6.824219 3.058594 6.824219 6.828125v34.132812c0 3.773438-3.054687 6.828125-6.824219 6.828125zm0 0"/><path style="fill:#FFA500" d="m163.964844 423.253906c-3.765625 0-6.824219-3.054687-6.824219-6.828125v-34.132812c0-3.769531 3.058594-6.828125 6.824219-6.828125 3.769531 0 6.828125 3.058594 6.828125 6.828125v34.132812c0 3.773438-3.058594 6.828125-6.828125 6.828125zm0 0"/><path style="fill:#FFA500" d="m116.179688 423.253906c-3.769532 0-6.828126-3.054687-6.828126-6.828125v-34.132812c0-3.769531 3.058594-6.828125 6.828126-6.828125 3.769531 0 6.828124 3.058594 6.828124 6.828125v34.132812c0 3.773438-3.058593 6.828125-6.828124 6.828125zm0 0"/><path style="fill:#FFA500" d="m41.085938 314.027344h-34.132813c-3.769531 0-6.828125-3.054688-6.828125-6.828125 0-3.769531 3.058594-6.824219 6.828125-6.824219h34.132813c3.769531 0 6.828124 3.054688 6.828124 6.824219 0 3.773437-3.058593 6.828125-6.828124 6.828125zm0 0"/><path style="fill:#FFA500" d="m41.085938 266.238281h-34.132813c-3.769531 0-6.828125-3.054687-6.828125-6.824219 0-3.773437 3.058594-6.828124 6.828125-6.828124h34.132813c3.769531 0 6.828124 3.054687 6.828124 6.828124 0 3.769532-3.058593 6.824219-6.828124 6.824219zm0 0"/><path style="fill:#FFA500" d="m41.085938 218.453125h-34.132813c-3.769531 0-6.828125-3.054687-6.828125-6.828125 0-3.769531 3.058594-6.824219 6.828125-6.824219h34.132813c3.769531 0 6.828124 3.054688 6.828124 6.824219 0 3.773438-3.058593 6.828125-6.828124 6.828125zm0 0"/><path style="fill:#FFA500" d="m41.085938 170.667969h-34.132813c-3.769531 0-6.828125-3.054688-6.828125-6.828125 0-3.773438 3.058594-6.828125 6.828125-6.828125h34.132813c3.769531 0 6.828124 3.054687 6.828124 6.828125 0 3.773437-3.058593 6.828125-6.828124 6.828125zm0 0"/><path style="fill:#FFA500" d="m41.085938 122.878906h-34.132813c-3.769531 0-6.828125-3.054687-6.828125-6.824218 0-3.773438 3.058594-6.828126 6.828125-6.828126h34.132813c3.769531 0 6.828124 3.054688 6.828124 6.828126 0 3.769531-3.058593 6.824218-6.828124 6.824218zm0 0"/><path style="fill:#FFA500" d="m41.085938 75.09375h-34.132813c-3.769531 0-6.828125-3.054688-6.828125-6.828125 0-3.769531 3.058594-6.824219 6.828125-6.824219h34.132813c3.769531 0 6.828124 3.054688 6.828124 6.824219 0 3.773437-3.058593 6.828125-6.828124 6.828125zm0 0"/></svg>