<?xml version="1.0" encoding="iso-8859-1"?>
<!-- Generator: Adobe Illustrator 19.0.0, SVG Export Plug-In . SVG Version: 6.00 Build 0)  -->
<svg version="1.1" id="Capa_1" xmlns="http://www.w3.org/2000/svg" xmlns:xlink="http://www.w3.org/1999/xlink" x="0px" y="0px"
	 viewBox="0 0 490 490" style="enable-background:new 0 0 490 490;" xml:space="preserve">
<g>
	<g>
		<path d="M490,459.6h-64.5c-5.4,0-10.1-4.3-10.1-10.1c0-5.4,4.3-10.1,10.1-10.1H490l0,0v-35l0,0h-41.2c-5.4,0-10.1-4.3-10.1-10.1
			c0-5.4,4.3-10.1,10.1-10.1H490l0,0v-35l0,0h-64.5c-5.4,0-10.1-4.3-10.1-10.1c0-5.4,4.3-10.1,10.1-10.1H490l0,0v-35l0,0h-41.2
			c-5.4,0-10.1-4.3-10.1-10.1c0-5.4,4.3-10.1,10.1-10.1H490l0,0v-35l0,0h-64.5c-5.4,0-10.1-4.3-10.1-10.1s4.3-10.1,10.1-10.1H490
			l0,0v-35l0,0h-41.2c-5.4,0-10.1-4.3-10.1-10.1s4.3-10.1,10.1-10.1H490l0,0v-35l0,0h-64.5c-5.4,0-10.1-4.3-10.1-10.1
			s4.3-10.1,10.1-10.1H490l0,0v-35l0,0h-41.2c-5.4,0-10.1-4.3-10.1-10.1c0-5.4,4.3-10.1,10.1-10.1H490l0,0V0h-52.1v64.5
			c0,5.4-4.3,10.1-10.1,10.1c-5.4,0-10.1-4.3-10.1-10.1V0h-35v41.2c0,5.4-4.3,10.1-10.1,10.1c-5.4,0-10.1-4.3-10.1-10.1V0h-35v64.5
			c0,5.4-4.3,10.1-10.1,10.1c-5.8,0-10.1-4.3-10.1-10.1V0h-35v41.2c0,5.4-4.3,10.1-10.1,10.1c-5.4,0-10.1-4.3-10.1-10.1V0h-35v64.5
			c0,5.4-4.3,10.1-10.1,10.1c-5.4,0-10.1-4.3-10.1-10.1V0h-35v41.2c0,5.4-4.3,10.1-10.1,10.1c-5.4,0-10.1-4.3-10.1-10.1V0h-35v64.5
			c0,5.4-4.3,10.1-10.1,10.1c-5.4,0-10.1-4.3-10.1-10.1V0h-35v41.2c0,5.4-4.3,10.1-10.1,10.1s-8.6-4.7-8.6-10.1V0H0v121.3h368.6V490
			H490V459.6L490,459.6z"/>
	</g>
</g>
<g>
</g>
<g>
</g>
<g>
</g>
<g>
</g>
<g>
</g>
<g>
</g>
<g>
</g>
<g>
</g>
<g>
</g>
<g>
</g>
<g>
</g>
<g>
</g>
<g>
</g>
<g>
</g>
<g>
</g>
</svg>
